<mxfile host="Electron" modified="2023-07-31T07:02:10.370Z" agent="Mozilla/5.0 (Windows NT 10.0; Win64; x64) AppleWebKit/537.36 (KHTML, like Gecko) draw.io/21.5.1 Chrome/112.0.5615.204 Electron/24.6.0 Safari/537.36" etag="cUc8-XQ27c5MvxdqWCCI" version="21.5.1" type="device">
  <diagram name="Page-1" id="CD8XDIZ3GTLLkGdjCgeP">
    <mxGraphModel dx="2126" dy="606" grid="1" gridSize="10" guides="1" tooltips="1" connect="1" arrows="1" fold="1" page="1" pageScale="1" pageWidth="850" pageHeight="1100" math="0" shadow="0">
      <root>
        <mxCell id="0" />
        <mxCell id="1" parent="0" />
        <mxCell id="quFrxLFvBAuA_-IhYsik-1" value="Tour Coordinate" style="whiteSpace=wrap;html=1;align=center;fillColor=#B5739D;" parent="1" vertex="1">
          <mxGeometry x="110" y="330" width="100" height="40" as="geometry" />
        </mxCell>
        <mxCell id="quFrxLFvBAuA_-IhYsik-2" value="Tour Equipment" style="whiteSpace=wrap;html=1;align=center;fillColor=#B5739D;" parent="1" vertex="1">
          <mxGeometry x="675" y="700" width="100" height="40" as="geometry" />
        </mxCell>
        <mxCell id="quFrxLFvBAuA_-IhYsik-3" value="Hotel" style="whiteSpace=wrap;html=1;align=center;fillColor=#B5739D;" parent="1" vertex="1">
          <mxGeometry x="110" y="660" width="100" height="40" as="geometry" />
        </mxCell>
        <mxCell id="quFrxLFvBAuA_-IhYsik-4" value="Tour" style="whiteSpace=wrap;html=1;align=center;fillColor=#B5739D;" parent="1" vertex="1">
          <mxGeometry x="670" y="120" width="100" height="40" as="geometry" />
        </mxCell>
        <mxCell id="quFrxLFvBAuA_-IhYsik-5" value="Tour Guide" style="whiteSpace=wrap;html=1;align=center;fillColor=#B5739D;" parent="1" vertex="1">
          <mxGeometry x="110" y="120" width="100" height="40" as="geometry" />
        </mxCell>
        <mxCell id="quFrxLFvBAuA_-IhYsik-6" value="Custormer" style="whiteSpace=wrap;html=1;align=center;fillColor=#B5739D;" parent="1" vertex="1">
          <mxGeometry x="670" y="410" width="100" height="40" as="geometry" />
        </mxCell>
        <mxCell id="quFrxLFvBAuA_-IhYsik-7" value="assigns to" style="shape=rhombus;perimeter=rhombusPerimeter;whiteSpace=wrap;html=1;align=center;fillColor=#FF6E26;" parent="1" vertex="1">
          <mxGeometry x="365" y="115" width="120" height="50" as="geometry" />
        </mxCell>
        <mxCell id="quFrxLFvBAuA_-IhYsik-8" value="books by" style="shape=rhombus;perimeter=rhombusPerimeter;whiteSpace=wrap;html=1;align=center;fillColor=#FF6E26;" parent="1" vertex="1">
          <mxGeometry x="660" y="250" width="100" height="50" as="geometry" />
        </mxCell>
        <mxCell id="quFrxLFvBAuA_-IhYsik-10" value="coordinate" style="shape=rhombus;perimeter=rhombusPerimeter;whiteSpace=wrap;html=1;align=center;fillColor=#FF6E26;" parent="1" vertex="1">
          <mxGeometry x="360" y="260" width="120" height="40" as="geometry" />
        </mxCell>
        <mxCell id="quFrxLFvBAuA_-IhYsik-12" value="can rent" style="shape=rhombus;perimeter=rhombusPerimeter;whiteSpace=wrap;html=1;align=center;fillColor=#FF6E26;" parent="1" vertex="1">
          <mxGeometry x="665" y="550" width="110" height="40" as="geometry" />
        </mxCell>
        <mxCell id="quFrxLFvBAuA_-IhYsik-14" value="make reservations" style="shape=rhombus;perimeter=rhombusPerimeter;whiteSpace=wrap;html=1;align=center;fillColor=#FF6E26;" parent="1" vertex="1">
          <mxGeometry x="100" y="480" width="120" height="50" as="geometry" />
        </mxCell>
        <mxCell id="quFrxLFvBAuA_-IhYsik-17" value="" style="endArrow=none;html=1;rounded=0;exitX=1;exitY=0.5;exitDx=0;exitDy=0;entryX=0;entryY=1;entryDx=0;entryDy=0;strokeColor=#CC00CC;" parent="1" source="quFrxLFvBAuA_-IhYsik-10" target="quFrxLFvBAuA_-IhYsik-4" edge="1">
          <mxGeometry relative="1" as="geometry">
            <mxPoint x="330" y="340" as="sourcePoint" />
            <mxPoint x="490" y="340" as="targetPoint" />
          </mxGeometry>
        </mxCell>
        <mxCell id="quFrxLFvBAuA_-IhYsik-18" value="" style="endArrow=none;html=1;rounded=0;exitX=1;exitY=0.25;exitDx=0;exitDy=0;entryX=0;entryY=0.5;entryDx=0;entryDy=0;strokeColor=#CC00CC;" parent="1" source="quFrxLFvBAuA_-IhYsik-1" target="quFrxLFvBAuA_-IhYsik-10" edge="1">
          <mxGeometry relative="1" as="geometry">
            <mxPoint x="330" y="340" as="sourcePoint" />
            <mxPoint x="350" y="290" as="targetPoint" />
          </mxGeometry>
        </mxCell>
        <mxCell id="quFrxLFvBAuA_-IhYsik-19" value="" style="endArrow=none;html=1;rounded=0;entryX=0.44;entryY=0.025;entryDx=0;entryDy=0;entryPerimeter=0;exitX=0.5;exitY=1;exitDx=0;exitDy=0;strokeColor=#CC00CC;" parent="1" edge="1">
          <mxGeometry relative="1" as="geometry">
            <mxPoint x="720.5" y="589" as="sourcePoint" />
            <mxPoint x="719.5" y="700" as="targetPoint" />
          </mxGeometry>
        </mxCell>
        <mxCell id="quFrxLFvBAuA_-IhYsik-20" value="" style="endArrow=none;html=1;rounded=0;entryX=0.5;entryY=0;entryDx=0;entryDy=0;exitX=0.5;exitY=1;exitDx=0;exitDy=0;strokeColor=#CC00CC;" parent="1" source="quFrxLFvBAuA_-IhYsik-6" target="quFrxLFvBAuA_-IhYsik-12" edge="1">
          <mxGeometry relative="1" as="geometry">
            <mxPoint x="330" y="340" as="sourcePoint" />
            <mxPoint x="490" y="340" as="targetPoint" />
          </mxGeometry>
        </mxCell>
        <mxCell id="quFrxLFvBAuA_-IhYsik-21" value="" style="endArrow=none;html=1;rounded=0;entryX=0.5;entryY=0;entryDx=0;entryDy=0;exitX=0.388;exitY=1.055;exitDx=0;exitDy=0;exitPerimeter=0;strokeColor=#CC00CC;" parent="1" source="quFrxLFvBAuA_-IhYsik-4" target="quFrxLFvBAuA_-IhYsik-8" edge="1">
          <mxGeometry relative="1" as="geometry">
            <mxPoint x="330" y="340" as="sourcePoint" />
            <mxPoint x="490" y="340" as="targetPoint" />
          </mxGeometry>
        </mxCell>
        <mxCell id="quFrxLFvBAuA_-IhYsik-22" value="" style="endArrow=none;html=1;rounded=0;exitX=0.5;exitY=1;exitDx=0;exitDy=0;strokeColor=#CC00CC;" parent="1" source="quFrxLFvBAuA_-IhYsik-8" edge="1">
          <mxGeometry relative="1" as="geometry">
            <mxPoint x="330" y="340" as="sourcePoint" />
            <mxPoint x="710" y="410" as="targetPoint" />
          </mxGeometry>
        </mxCell>
        <mxCell id="quFrxLFvBAuA_-IhYsik-23" value="" style="endArrow=none;html=1;rounded=0;exitX=1;exitY=0.5;exitDx=0;exitDy=0;entryX=0;entryY=0.5;entryDx=0;entryDy=0;strokeColor=#CC00CC;" parent="1" source="quFrxLFvBAuA_-IhYsik-7" target="quFrxLFvBAuA_-IhYsik-4" edge="1">
          <mxGeometry relative="1" as="geometry">
            <mxPoint x="330" y="340" as="sourcePoint" />
            <mxPoint x="490" y="340" as="targetPoint" />
          </mxGeometry>
        </mxCell>
        <mxCell id="quFrxLFvBAuA_-IhYsik-24" value="" style="endArrow=none;html=1;rounded=0;exitX=1;exitY=0.5;exitDx=0;exitDy=0;entryX=0;entryY=0.5;entryDx=0;entryDy=0;strokeColor=#CC00CC;" parent="1" source="quFrxLFvBAuA_-IhYsik-5" target="quFrxLFvBAuA_-IhYsik-7" edge="1">
          <mxGeometry relative="1" as="geometry">
            <mxPoint x="330" y="340" as="sourcePoint" />
            <mxPoint x="490" y="340" as="targetPoint" />
          </mxGeometry>
        </mxCell>
        <mxCell id="quFrxLFvBAuA_-IhYsik-25" value="" style="endArrow=none;html=1;rounded=0;exitX=0.5;exitY=0;exitDx=0;exitDy=0;strokeColor=#CC00CC;" parent="1" source="quFrxLFvBAuA_-IhYsik-14" target="quFrxLFvBAuA_-IhYsik-1" edge="1">
          <mxGeometry relative="1" as="geometry">
            <mxPoint x="330" y="570" as="sourcePoint" />
            <mxPoint x="490" y="570" as="targetPoint" />
          </mxGeometry>
        </mxCell>
        <mxCell id="quFrxLFvBAuA_-IhYsik-26" value="" style="endArrow=none;html=1;rounded=0;exitX=0.5;exitY=0;exitDx=0;exitDy=0;entryX=0.5;entryY=1;entryDx=0;entryDy=0;strokeColor=#CC00CC;" parent="1" source="quFrxLFvBAuA_-IhYsik-3" target="quFrxLFvBAuA_-IhYsik-14" edge="1">
          <mxGeometry relative="1" as="geometry">
            <mxPoint x="330" y="570" as="sourcePoint" />
            <mxPoint x="490" y="570" as="targetPoint" />
          </mxGeometry>
        </mxCell>
        <mxCell id="quFrxLFvBAuA_-IhYsik-27" value="Tour date" style="ellipse;whiteSpace=wrap;html=1;align=center;" parent="1" vertex="1">
          <mxGeometry x="680" y="20" width="60" height="30" as="geometry" />
        </mxCell>
        <mxCell id="quFrxLFvBAuA_-IhYsik-28" value="Category" style="ellipse;whiteSpace=wrap;html=1;align=center;" parent="1" vertex="1">
          <mxGeometry x="560" y="90" width="80" height="30" as="geometry" />
        </mxCell>
        <mxCell id="quFrxLFvBAuA_-IhYsik-29" value="Name" style="ellipse;whiteSpace=wrap;html=1;align=center;" parent="1" vertex="1">
          <mxGeometry x="-10" y="210" width="80" height="30" as="geometry" />
        </mxCell>
        <mxCell id="quFrxLFvBAuA_-IhYsik-30" value="Address" style="ellipse;whiteSpace=wrap;html=1;align=center;" parent="1" vertex="1">
          <mxGeometry x="-70" y="150" width="90" height="30" as="geometry" />
        </mxCell>
        <mxCell id="quFrxLFvBAuA_-IhYsik-31" value="Telephone" style="ellipse;whiteSpace=wrap;html=1;align=center;" parent="1" vertex="1">
          <mxGeometry x="-50" y="100" width="80" height="30" as="geometry" />
        </mxCell>
        <mxCell id="quFrxLFvBAuA_-IhYsik-32" value="Tour location" style="ellipse;whiteSpace=wrap;html=1;align=center;" parent="1" vertex="1">
          <mxGeometry x="820" y="115" width="80" height="30" as="geometry" />
        </mxCell>
        <mxCell id="quFrxLFvBAuA_-IhYsik-33" value="Employee start date" style="ellipse;whiteSpace=wrap;html=1;align=center;" parent="1" vertex="1">
          <mxGeometry x="100" y="30" width="110" height="30" as="geometry" />
        </mxCell>
        <mxCell id="quFrxLFvBAuA_-IhYsik-34" value="Date of birth" style="ellipse;whiteSpace=wrap;html=1;align=center;" parent="1" vertex="1">
          <mxGeometry y="30" width="80" height="40" as="geometry" />
        </mxCell>
        <mxCell id="quFrxLFvBAuA_-IhYsik-35" value="Employee ID" style="ellipse;whiteSpace=wrap;html=1;align=center;fontStyle=4;" parent="1" vertex="1">
          <mxGeometry x="100" y="220" width="100" height="30" as="geometry" />
        </mxCell>
        <mxCell id="quFrxLFvBAuA_-IhYsik-36" value="Special training areas" style="ellipse;shape=doubleEllipse;margin=3;whiteSpace=wrap;html=1;align=center;" parent="1" vertex="1">
          <mxGeometry x="220" y="50" width="100" height="40" as="geometry" />
        </mxCell>
        <mxCell id="quFrxLFvBAuA_-IhYsik-37" value="" style="endArrow=none;html=1;rounded=0;exitX=0.75;exitY=0;exitDx=0;exitDy=0;entryX=0;entryY=1;entryDx=0;entryDy=0;" parent="1" source="quFrxLFvBAuA_-IhYsik-5" target="quFrxLFvBAuA_-IhYsik-36" edge="1">
          <mxGeometry relative="1" as="geometry">
            <mxPoint x="410" y="200" as="sourcePoint" />
            <mxPoint x="570" y="200" as="targetPoint" />
          </mxGeometry>
        </mxCell>
        <mxCell id="quFrxLFvBAuA_-IhYsik-38" value="" style="endArrow=none;html=1;rounded=0;exitX=0.408;exitY=0.075;exitDx=0;exitDy=0;entryX=0.5;entryY=1;entryDx=0;entryDy=0;exitPerimeter=0;" parent="1" source="quFrxLFvBAuA_-IhYsik-5" target="quFrxLFvBAuA_-IhYsik-33" edge="1">
          <mxGeometry relative="1" as="geometry">
            <mxPoint x="410" y="200" as="sourcePoint" />
            <mxPoint x="570" y="200" as="targetPoint" />
          </mxGeometry>
        </mxCell>
        <mxCell id="quFrxLFvBAuA_-IhYsik-39" value="" style="endArrow=none;html=1;rounded=0;exitX=0.608;exitY=0.945;exitDx=0;exitDy=0;exitPerimeter=0;entryX=0.144;entryY=0.015;entryDx=0;entryDy=0;entryPerimeter=0;" parent="1" source="quFrxLFvBAuA_-IhYsik-34" target="quFrxLFvBAuA_-IhYsik-5" edge="1">
          <mxGeometry relative="1" as="geometry">
            <mxPoint x="410" y="200" as="sourcePoint" />
            <mxPoint x="570" y="200" as="targetPoint" />
          </mxGeometry>
        </mxCell>
        <mxCell id="quFrxLFvBAuA_-IhYsik-40" value="" style="endArrow=none;html=1;rounded=0;exitX=1;exitY=0.5;exitDx=0;exitDy=0;entryX=0;entryY=0.5;entryDx=0;entryDy=0;" parent="1" source="quFrxLFvBAuA_-IhYsik-31" target="quFrxLFvBAuA_-IhYsik-5" edge="1">
          <mxGeometry relative="1" as="geometry">
            <mxPoint x="-10" y="110" as="sourcePoint" />
            <mxPoint x="570" y="200" as="targetPoint" />
          </mxGeometry>
        </mxCell>
        <mxCell id="quFrxLFvBAuA_-IhYsik-41" value="" style="endArrow=none;html=1;rounded=0;exitX=1;exitY=0.5;exitDx=0;exitDy=0;entryX=0;entryY=0.75;entryDx=0;entryDy=0;" parent="1" source="quFrxLFvBAuA_-IhYsik-30" target="quFrxLFvBAuA_-IhYsik-5" edge="1">
          <mxGeometry relative="1" as="geometry">
            <mxPoint x="410" y="200" as="sourcePoint" />
            <mxPoint x="570" y="200" as="targetPoint" />
          </mxGeometry>
        </mxCell>
        <mxCell id="quFrxLFvBAuA_-IhYsik-42" value="" style="endArrow=none;html=1;rounded=0;exitX=0.5;exitY=0;exitDx=0;exitDy=0;entryX=0.25;entryY=1;entryDx=0;entryDy=0;" parent="1" source="quFrxLFvBAuA_-IhYsik-29" target="quFrxLFvBAuA_-IhYsik-5" edge="1">
          <mxGeometry relative="1" as="geometry">
            <mxPoint x="410" y="200" as="sourcePoint" />
            <mxPoint x="570" y="200" as="targetPoint" />
          </mxGeometry>
        </mxCell>
        <mxCell id="quFrxLFvBAuA_-IhYsik-43" value="" style="endArrow=none;html=1;rounded=0;exitX=0.5;exitY=0;exitDx=0;exitDy=0;entryX=0.392;entryY=0.955;entryDx=0;entryDy=0;entryPerimeter=0;" parent="1" source="quFrxLFvBAuA_-IhYsik-35" target="quFrxLFvBAuA_-IhYsik-5" edge="1">
          <mxGeometry relative="1" as="geometry">
            <mxPoint x="410" y="200" as="sourcePoint" />
            <mxPoint x="570" y="200" as="targetPoint" />
          </mxGeometry>
        </mxCell>
        <mxCell id="quFrxLFvBAuA_-IhYsik-47" value="Tour ID" style="ellipse;whiteSpace=wrap;html=1;align=center;fontStyle=4;" parent="1" vertex="1">
          <mxGeometry x="585" y="40" width="80" height="30" as="geometry" />
        </mxCell>
        <mxCell id="quFrxLFvBAuA_-IhYsik-48" value="Telephone number" style="ellipse;whiteSpace=wrap;html=1;align=center;" parent="1" vertex="1">
          <mxGeometry x="740" y="330" width="80" height="30" as="geometry" />
        </mxCell>
        <mxCell id="quFrxLFvBAuA_-IhYsik-49" value="Tour name&amp;nbsp;" style="ellipse;whiteSpace=wrap;html=1;align=center;" parent="1" vertex="1">
          <mxGeometry x="760" y="20" width="70" height="30" as="geometry" />
        </mxCell>
        <mxCell id="quFrxLFvBAuA_-IhYsik-50" value="Max num of tour members" style="ellipse;whiteSpace=wrap;html=1;align=center;" parent="1" vertex="1">
          <mxGeometry x="810" y="60" width="80" height="40" as="geometry" />
        </mxCell>
        <mxCell id="quFrxLFvBAuA_-IhYsik-51" value="" style="endArrow=none;html=1;rounded=0;entryX=0;entryY=0.75;entryDx=0;entryDy=0;exitX=1;exitY=0.5;exitDx=0;exitDy=0;" parent="1" source="quFrxLFvBAuA_-IhYsik-60" target="quFrxLFvBAuA_-IhYsik-6" edge="1">
          <mxGeometry relative="1" as="geometry">
            <mxPoint x="410" y="190" as="sourcePoint" />
            <mxPoint x="570" y="190" as="targetPoint" />
          </mxGeometry>
        </mxCell>
        <mxCell id="quFrxLFvBAuA_-IhYsik-52" value="" style="endArrow=none;html=1;rounded=0;entryX=0;entryY=0;entryDx=0;entryDy=0;exitX=0.582;exitY=0.96;exitDx=0;exitDy=0;exitPerimeter=0;" parent="1" source="quFrxLFvBAuA_-IhYsik-59" target="quFrxLFvBAuA_-IhYsik-6" edge="1">
          <mxGeometry relative="1" as="geometry">
            <mxPoint x="410" y="190" as="sourcePoint" />
            <mxPoint x="570" y="190" as="targetPoint" />
          </mxGeometry>
        </mxCell>
        <mxCell id="quFrxLFvBAuA_-IhYsik-53" value="" style="endArrow=none;html=1;rounded=0;entryX=0;entryY=0.5;entryDx=0;entryDy=0;" parent="1" target="quFrxLFvBAuA_-IhYsik-32" edge="1">
          <mxGeometry relative="1" as="geometry">
            <mxPoint x="770" y="140" as="sourcePoint" />
            <mxPoint x="570" y="190" as="targetPoint" />
          </mxGeometry>
        </mxCell>
        <mxCell id="quFrxLFvBAuA_-IhYsik-54" value="" style="endArrow=none;html=1;rounded=0;entryX=1;entryY=0;entryDx=0;entryDy=0;exitX=0;exitY=0.695;exitDx=0;exitDy=0;exitPerimeter=0;" parent="1" source="quFrxLFvBAuA_-IhYsik-50" target="quFrxLFvBAuA_-IhYsik-4" edge="1">
          <mxGeometry relative="1" as="geometry">
            <mxPoint x="410" y="190" as="sourcePoint" />
            <mxPoint x="570" y="190" as="targetPoint" />
          </mxGeometry>
        </mxCell>
        <mxCell id="quFrxLFvBAuA_-IhYsik-55" value="" style="endArrow=none;html=1;rounded=0;entryX=0.656;entryY=-0.025;entryDx=0;entryDy=0;entryPerimeter=0;exitX=0.303;exitY=0.98;exitDx=0;exitDy=0;exitPerimeter=0;" parent="1" source="quFrxLFvBAuA_-IhYsik-49" target="quFrxLFvBAuA_-IhYsik-4" edge="1">
          <mxGeometry relative="1" as="geometry">
            <mxPoint x="410" y="190" as="sourcePoint" />
            <mxPoint x="570" y="190" as="targetPoint" />
          </mxGeometry>
        </mxCell>
        <mxCell id="quFrxLFvBAuA_-IhYsik-56" value="" style="endArrow=none;html=1;rounded=0;entryX=0.5;entryY=0;entryDx=0;entryDy=0;exitX=0.5;exitY=1;exitDx=0;exitDy=0;" parent="1" source="quFrxLFvBAuA_-IhYsik-27" target="quFrxLFvBAuA_-IhYsik-4" edge="1">
          <mxGeometry relative="1" as="geometry">
            <mxPoint x="410" y="190" as="sourcePoint" />
            <mxPoint x="570" y="190" as="targetPoint" />
          </mxGeometry>
        </mxCell>
        <mxCell id="quFrxLFvBAuA_-IhYsik-57" value="" style="endArrow=none;html=1;rounded=0;entryX=0.25;entryY=0;entryDx=0;entryDy=0;exitX=1;exitY=1;exitDx=0;exitDy=0;" parent="1" source="quFrxLFvBAuA_-IhYsik-47" target="quFrxLFvBAuA_-IhYsik-4" edge="1">
          <mxGeometry relative="1" as="geometry">
            <mxPoint x="410" y="190" as="sourcePoint" />
            <mxPoint x="570" y="190" as="targetPoint" />
          </mxGeometry>
        </mxCell>
        <mxCell id="quFrxLFvBAuA_-IhYsik-58" value="" style="endArrow=none;html=1;rounded=0;entryX=0;entryY=0;entryDx=0;entryDy=0;exitX=1;exitY=0.5;exitDx=0;exitDy=0;" parent="1" source="quFrxLFvBAuA_-IhYsik-28" target="quFrxLFvBAuA_-IhYsik-4" edge="1">
          <mxGeometry relative="1" as="geometry">
            <mxPoint x="410" y="190" as="sourcePoint" />
            <mxPoint x="570" y="190" as="targetPoint" />
          </mxGeometry>
        </mxCell>
        <mxCell id="quFrxLFvBAuA_-IhYsik-59" value="Reference ID" style="ellipse;whiteSpace=wrap;html=1;align=center;fontStyle=4;" parent="1" vertex="1">
          <mxGeometry x="560" y="335" width="90" height="30" as="geometry" />
        </mxCell>
        <mxCell id="quFrxLFvBAuA_-IhYsik-60" value="Address" style="ellipse;whiteSpace=wrap;html=1;align=center;" parent="1" vertex="1">
          <mxGeometry x="540" y="420" width="85" height="30" as="geometry" />
        </mxCell>
        <mxCell id="quFrxLFvBAuA_-IhYsik-61" value="Custormer name" style="ellipse;whiteSpace=wrap;html=1;align=center;" parent="1" vertex="1">
          <mxGeometry x="820" y="390" width="90" height="30" as="geometry" />
        </mxCell>
        <mxCell id="quFrxLFvBAuA_-IhYsik-62" value="Description" style="ellipse;whiteSpace=wrap;html=1;align=center;" parent="1" vertex="1">
          <mxGeometry x="820" y="700" width="90" height="30" as="geometry" />
        </mxCell>
        <mxCell id="quFrxLFvBAuA_-IhYsik-63" value="Tour preference" style="ellipse;whiteSpace=wrap;html=1;align=center;" parent="1" vertex="1">
          <mxGeometry x="585" y="480" width="80" height="35" as="geometry" />
        </mxCell>
        <mxCell id="quFrxLFvBAuA_-IhYsik-64" value="No. of geusts accompanying" style="ellipse;whiteSpace=wrap;html=1;align=center;" parent="1" vertex="1">
          <mxGeometry x="815" y="450" width="90" height="40" as="geometry" />
        </mxCell>
        <mxCell id="quFrxLFvBAuA_-IhYsik-66" value="Item code" style="ellipse;whiteSpace=wrap;html=1;align=center;fontStyle=4;" parent="1" vertex="1">
          <mxGeometry x="550" y="690" width="90" height="40" as="geometry" />
        </mxCell>
        <mxCell id="quFrxLFvBAuA_-IhYsik-68" style="edgeStyle=orthogonalEdgeStyle;rounded=0;orthogonalLoop=1;jettySize=auto;html=1;exitX=0.5;exitY=1;exitDx=0;exitDy=0;" parent="1" source="quFrxLFvBAuA_-IhYsik-60" target="quFrxLFvBAuA_-IhYsik-60" edge="1">
          <mxGeometry relative="1" as="geometry" />
        </mxCell>
        <mxCell id="quFrxLFvBAuA_-IhYsik-69" value="" style="endArrow=none;html=1;rounded=0;exitX=1;exitY=0.5;exitDx=0;exitDy=0;entryX=0;entryY=0.25;entryDx=0;entryDy=0;" parent="1" source="quFrxLFvBAuA_-IhYsik-66" target="quFrxLFvBAuA_-IhYsik-2" edge="1">
          <mxGeometry relative="1" as="geometry">
            <mxPoint x="410" y="580" as="sourcePoint" />
            <mxPoint x="570" y="580" as="targetPoint" />
          </mxGeometry>
        </mxCell>
        <mxCell id="quFrxLFvBAuA_-IhYsik-70" value="" style="endArrow=none;html=1;rounded=0;exitX=0.672;exitY=0.045;exitDx=0;exitDy=0;exitPerimeter=0;" parent="1" source="quFrxLFvBAuA_-IhYsik-6" edge="1">
          <mxGeometry relative="1" as="geometry">
            <mxPoint x="410" y="580" as="sourcePoint" />
            <mxPoint x="770" y="360" as="targetPoint" />
          </mxGeometry>
        </mxCell>
        <mxCell id="quFrxLFvBAuA_-IhYsik-71" value="" style="endArrow=none;html=1;rounded=0;entryX=0;entryY=0.5;entryDx=0;entryDy=0;exitX=1;exitY=0.25;exitDx=0;exitDy=0;" parent="1" source="quFrxLFvBAuA_-IhYsik-6" target="quFrxLFvBAuA_-IhYsik-61" edge="1">
          <mxGeometry relative="1" as="geometry">
            <mxPoint x="410" y="580" as="sourcePoint" />
            <mxPoint x="570" y="580" as="targetPoint" />
          </mxGeometry>
        </mxCell>
        <mxCell id="quFrxLFvBAuA_-IhYsik-72" value="" style="endArrow=none;html=1;rounded=0;entryX=0;entryY=0.25;entryDx=0;entryDy=0;entryPerimeter=0;exitX=1;exitY=0.75;exitDx=0;exitDy=0;" parent="1" source="quFrxLFvBAuA_-IhYsik-6" target="quFrxLFvBAuA_-IhYsik-64" edge="1">
          <mxGeometry relative="1" as="geometry">
            <mxPoint x="410" y="580" as="sourcePoint" />
            <mxPoint x="570" y="580" as="targetPoint" />
          </mxGeometry>
        </mxCell>
        <mxCell id="quFrxLFvBAuA_-IhYsik-73" value="" style="endArrow=none;html=1;rounded=0;exitX=1;exitY=0;exitDx=0;exitDy=0;" parent="1" source="quFrxLFvBAuA_-IhYsik-63" edge="1">
          <mxGeometry relative="1" as="geometry">
            <mxPoint x="410" y="580" as="sourcePoint" />
            <mxPoint x="710" y="450" as="targetPoint" />
          </mxGeometry>
        </mxCell>
        <mxCell id="quFrxLFvBAuA_-IhYsik-74" value="Rent rate" style="ellipse;whiteSpace=wrap;html=1;align=center;" parent="1" vertex="1">
          <mxGeometry x="730" y="790" width="85" height="40" as="geometry" />
        </mxCell>
        <mxCell id="quFrxLFvBAuA_-IhYsik-75" value="Quantity in hand" style="ellipse;whiteSpace=wrap;html=1;align=center;" parent="1" vertex="1">
          <mxGeometry x="570" y="780" width="90" height="40" as="geometry" />
        </mxCell>
        <mxCell id="quFrxLFvBAuA_-IhYsik-77" value="" style="endArrow=none;html=1;rounded=0;exitX=0.88;exitY=-0.045;exitDx=0;exitDy=0;exitPerimeter=0;entryX=0;entryY=1;entryDx=0;entryDy=0;" parent="1" source="quFrxLFvBAuA_-IhYsik-3" target="quFrxLFvBAuA_-IhYsik-93" edge="1">
          <mxGeometry relative="1" as="geometry">
            <mxPoint x="410" y="580" as="sourcePoint" />
            <mxPoint x="570" y="580" as="targetPoint" />
          </mxGeometry>
        </mxCell>
        <mxCell id="quFrxLFvBAuA_-IhYsik-78" value="" style="endArrow=none;html=1;rounded=0;exitX=1;exitY=0.5;exitDx=0;exitDy=0;entryX=0;entryY=0.5;entryDx=0;entryDy=0;" parent="1" source="quFrxLFvBAuA_-IhYsik-3" target="quFrxLFvBAuA_-IhYsik-83" edge="1">
          <mxGeometry relative="1" as="geometry">
            <mxPoint x="410" y="580" as="sourcePoint" />
            <mxPoint x="570" y="580" as="targetPoint" />
          </mxGeometry>
        </mxCell>
        <mxCell id="quFrxLFvBAuA_-IhYsik-79" value="" style="endArrow=none;html=1;rounded=0;exitX=1;exitY=0.5;exitDx=0;exitDy=0;entryX=0;entryY=0.5;entryDx=0;entryDy=0;" parent="1" source="quFrxLFvBAuA_-IhYsik-2" target="quFrxLFvBAuA_-IhYsik-62" edge="1">
          <mxGeometry relative="1" as="geometry">
            <mxPoint x="410" y="580" as="sourcePoint" />
            <mxPoint x="570" y="580" as="targetPoint" />
          </mxGeometry>
        </mxCell>
        <mxCell id="quFrxLFvBAuA_-IhYsik-80" value="" style="endArrow=none;html=1;rounded=0;exitX=0.358;exitY=-0.055;exitDx=0;exitDy=0;exitPerimeter=0;entryX=0.598;entryY=1.035;entryDx=0;entryDy=0;entryPerimeter=0;" parent="1" source="quFrxLFvBAuA_-IhYsik-74" target="quFrxLFvBAuA_-IhYsik-2" edge="1">
          <mxGeometry relative="1" as="geometry">
            <mxPoint x="410" y="580" as="sourcePoint" />
            <mxPoint x="570" y="580" as="targetPoint" />
          </mxGeometry>
        </mxCell>
        <mxCell id="quFrxLFvBAuA_-IhYsik-81" value="" style="endArrow=none;html=1;rounded=0;exitX=1;exitY=0;exitDx=0;exitDy=0;entryX=0.25;entryY=1;entryDx=0;entryDy=0;" parent="1" source="quFrxLFvBAuA_-IhYsik-75" target="quFrxLFvBAuA_-IhYsik-2" edge="1">
          <mxGeometry relative="1" as="geometry">
            <mxPoint x="410" y="580" as="sourcePoint" />
            <mxPoint x="570" y="580" as="targetPoint" />
          </mxGeometry>
        </mxCell>
        <mxCell id="quFrxLFvBAuA_-IhYsik-82" value="Coordinate ID" style="ellipse;whiteSpace=wrap;html=1;align=center;fontStyle=4;" parent="1" vertex="1">
          <mxGeometry x="-10" y="300" width="80" height="35" as="geometry" />
        </mxCell>
        <mxCell id="quFrxLFvBAuA_-IhYsik-83" value="Hotel number" style="ellipse;whiteSpace=wrap;html=1;align=center;fontStyle=4;" parent="1" vertex="1">
          <mxGeometry x="260" y="660" width="80" height="30" as="geometry" />
        </mxCell>
        <mxCell id="quFrxLFvBAuA_-IhYsik-84" value="Address" style="ellipse;whiteSpace=wrap;html=1;align=center;" parent="1" vertex="1">
          <mxGeometry x="50" y="410" width="60" height="30" as="geometry" />
        </mxCell>
        <mxCell id="quFrxLFvBAuA_-IhYsik-85" value="Name" style="ellipse;whiteSpace=wrap;html=1;align=center;" parent="1" vertex="1">
          <mxGeometry x="-20" y="365" width="70" height="25" as="geometry" />
        </mxCell>
        <mxCell id="quFrxLFvBAuA_-IhYsik-86" value="name" style="ellipse;whiteSpace=wrap;html=1;align=center;" parent="1" vertex="1">
          <mxGeometry x="225" y="730" width="80" height="30" as="geometry" />
        </mxCell>
        <mxCell id="quFrxLFvBAuA_-IhYsik-87" value="Address" style="ellipse;whiteSpace=wrap;html=1;align=center;" parent="1" vertex="1">
          <mxGeometry x="120" y="770" width="80" height="30" as="geometry" />
        </mxCell>
        <mxCell id="quFrxLFvBAuA_-IhYsik-89" value="Number of rooms&amp;nbsp;" style="ellipse;whiteSpace=wrap;html=1;align=center;" parent="1" vertex="1">
          <mxGeometry y="730" width="90" height="40" as="geometry" />
        </mxCell>
        <mxCell id="quFrxLFvBAuA_-IhYsik-90" value="Room rent&amp;nbsp;" style="ellipse;whiteSpace=wrap;html=1;align=center;" parent="1" vertex="1">
          <mxGeometry x="70" y="590" width="70" height="30" as="geometry" />
        </mxCell>
        <mxCell id="quFrxLFvBAuA_-IhYsik-91" value="Telephone number" style="ellipse;shape=doubleEllipse;margin=3;whiteSpace=wrap;html=1;align=center;" parent="1" vertex="1">
          <mxGeometry x="190" y="410" width="60" height="40" as="geometry" />
        </mxCell>
        <mxCell id="quFrxLFvBAuA_-IhYsik-92" value="Telephone number" style="ellipse;shape=doubleEllipse;margin=3;whiteSpace=wrap;html=1;align=center;" parent="1" vertex="1">
          <mxGeometry x="-20" y="640" width="100" height="40" as="geometry" />
        </mxCell>
        <mxCell id="quFrxLFvBAuA_-IhYsik-93" value="Facilities available" style="ellipse;shape=doubleEllipse;margin=3;whiteSpace=wrap;html=1;align=center;" parent="1" vertex="1">
          <mxGeometry x="220" y="600" width="90" height="40" as="geometry" />
        </mxCell>
        <mxCell id="quFrxLFvBAuA_-IhYsik-94" value="" style="endArrow=none;html=1;rounded=0;exitX=1;exitY=1;exitDx=0;exitDy=0;entryX=0;entryY=0.5;entryDx=0;entryDy=0;" parent="1" source="quFrxLFvBAuA_-IhYsik-92" target="quFrxLFvBAuA_-IhYsik-3" edge="1">
          <mxGeometry relative="1" as="geometry">
            <mxPoint x="410" y="580" as="sourcePoint" />
            <mxPoint x="20" y="690" as="targetPoint" />
          </mxGeometry>
        </mxCell>
        <mxCell id="quFrxLFvBAuA_-IhYsik-95" value="" style="endArrow=none;html=1;rounded=0;entryX=0.36;entryY=0.075;entryDx=0;entryDy=0;entryPerimeter=0;" parent="1" target="quFrxLFvBAuA_-IhYsik-3" edge="1">
          <mxGeometry relative="1" as="geometry">
            <mxPoint x="105" y="620" as="sourcePoint" />
            <mxPoint x="570" y="580" as="targetPoint" />
          </mxGeometry>
        </mxCell>
        <mxCell id="quFrxLFvBAuA_-IhYsik-96" value="" style="endArrow=none;html=1;rounded=0;exitX=0.5;exitY=1;exitDx=0;exitDy=0;entryX=0.5;entryY=0;entryDx=0;entryDy=0;" parent="1" source="quFrxLFvBAuA_-IhYsik-3" target="quFrxLFvBAuA_-IhYsik-87" edge="1">
          <mxGeometry relative="1" as="geometry">
            <mxPoint x="410" y="580" as="sourcePoint" />
            <mxPoint x="570" y="580" as="targetPoint" />
          </mxGeometry>
        </mxCell>
        <mxCell id="quFrxLFvBAuA_-IhYsik-97" value="" style="endArrow=none;html=1;rounded=0;exitX=1;exitY=1;exitDx=0;exitDy=0;entryX=0;entryY=0;entryDx=0;entryDy=0;" parent="1" source="quFrxLFvBAuA_-IhYsik-3" target="quFrxLFvBAuA_-IhYsik-86" edge="1">
          <mxGeometry relative="1" as="geometry">
            <mxPoint x="410" y="580" as="sourcePoint" />
            <mxPoint x="570" y="580" as="targetPoint" />
          </mxGeometry>
        </mxCell>
        <mxCell id="quFrxLFvBAuA_-IhYsik-98" value="" style="endArrow=none;html=1;rounded=0;exitX=1;exitY=0;exitDx=0;exitDy=0;entryX=0.25;entryY=1;entryDx=0;entryDy=0;" parent="1" source="quFrxLFvBAuA_-IhYsik-89" target="quFrxLFvBAuA_-IhYsik-3" edge="1">
          <mxGeometry relative="1" as="geometry">
            <mxPoint x="410" y="580" as="sourcePoint" />
            <mxPoint x="570" y="580" as="targetPoint" />
          </mxGeometry>
        </mxCell>
        <mxCell id="quFrxLFvBAuA_-IhYsik-102" value="Qualifications" style="ellipse;shape=doubleEllipse;margin=3;whiteSpace=wrap;html=1;align=center;" parent="1" vertex="1">
          <mxGeometry x="255" y="350" width="90" height="30" as="geometry" />
        </mxCell>
        <mxCell id="quFrxLFvBAuA_-IhYsik-103" value="" style="endArrow=none;html=1;rounded=0;exitX=1;exitY=0.5;exitDx=0;exitDy=0;entryX=0;entryY=0;entryDx=0;entryDy=0;" parent="1" source="quFrxLFvBAuA_-IhYsik-82" target="quFrxLFvBAuA_-IhYsik-1" edge="1">
          <mxGeometry relative="1" as="geometry">
            <mxPoint x="410" y="360" as="sourcePoint" />
            <mxPoint x="570" y="360" as="targetPoint" />
          </mxGeometry>
        </mxCell>
        <mxCell id="quFrxLFvBAuA_-IhYsik-104" value="" style="endArrow=none;html=1;rounded=0;exitX=1;exitY=0.5;exitDx=0;exitDy=0;entryX=0;entryY=1;entryDx=0;entryDy=0;" parent="1" source="quFrxLFvBAuA_-IhYsik-85" target="quFrxLFvBAuA_-IhYsik-1" edge="1">
          <mxGeometry relative="1" as="geometry">
            <mxPoint x="410" y="360" as="sourcePoint" />
            <mxPoint x="570" y="360" as="targetPoint" />
          </mxGeometry>
        </mxCell>
        <mxCell id="quFrxLFvBAuA_-IhYsik-105" value="" style="endArrow=none;html=1;rounded=0;exitX=1;exitY=0;exitDx=0;exitDy=0;entryX=0.376;entryY=1.005;entryDx=0;entryDy=0;entryPerimeter=0;" parent="1" source="quFrxLFvBAuA_-IhYsik-84" target="quFrxLFvBAuA_-IhYsik-1" edge="1">
          <mxGeometry relative="1" as="geometry">
            <mxPoint x="410" y="360" as="sourcePoint" />
            <mxPoint x="570" y="360" as="targetPoint" />
          </mxGeometry>
        </mxCell>
        <mxCell id="quFrxLFvBAuA_-IhYsik-106" value="" style="endArrow=none;html=1;rounded=0;exitX=0.75;exitY=1;exitDx=0;exitDy=0;entryX=0.307;entryY=0.065;entryDx=0;entryDy=0;entryPerimeter=0;" parent="1" source="quFrxLFvBAuA_-IhYsik-1" target="quFrxLFvBAuA_-IhYsik-91" edge="1">
          <mxGeometry relative="1" as="geometry">
            <mxPoint x="410" y="360" as="sourcePoint" />
            <mxPoint x="570" y="360" as="targetPoint" />
          </mxGeometry>
        </mxCell>
        <mxCell id="quFrxLFvBAuA_-IhYsik-107" value="" style="endArrow=none;html=1;rounded=0;exitX=1;exitY=0.75;exitDx=0;exitDy=0;entryX=0;entryY=0.5;entryDx=0;entryDy=0;" parent="1" source="quFrxLFvBAuA_-IhYsik-1" target="quFrxLFvBAuA_-IhYsik-102" edge="1">
          <mxGeometry relative="1" as="geometry">
            <mxPoint x="410" y="360" as="sourcePoint" />
            <mxPoint x="570" y="360" as="targetPoint" />
          </mxGeometry>
        </mxCell>
        <mxCell id="quFrxLFvBAuA_-IhYsik-108" value="1" style="text;html=1;align=center;verticalAlign=middle;resizable=0;points=[];autosize=1;strokeColor=none;fillColor=none;" parent="1" vertex="1">
          <mxGeometry x="635" y="108" width="30" height="30" as="geometry" />
        </mxCell>
        <mxCell id="quFrxLFvBAuA_-IhYsik-109" value="1" style="text;html=1;align=center;verticalAlign=middle;resizable=0;points=[];autosize=1;strokeColor=none;fillColor=none;" parent="1" vertex="1">
          <mxGeometry x="215" y="118" width="30" height="30" as="geometry" />
        </mxCell>
        <mxCell id="quFrxLFvBAuA_-IhYsik-111" value="1" style="text;html=1;align=center;verticalAlign=middle;resizable=0;points=[];autosize=1;strokeColor=none;fillColor=none;" parent="1" vertex="1">
          <mxGeometry x="715" y="168" width="30" height="30" as="geometry" />
        </mxCell>
        <mxCell id="quFrxLFvBAuA_-IhYsik-112" value="M" style="text;html=1;align=center;verticalAlign=middle;resizable=0;points=[];autosize=1;strokeColor=none;fillColor=none;" parent="1" vertex="1">
          <mxGeometry x="705" y="378" width="30" height="30" as="geometry" />
        </mxCell>
        <mxCell id="quFrxLFvBAuA_-IhYsik-113" value="1" style="text;html=1;align=center;verticalAlign=middle;resizable=0;points=[];autosize=1;strokeColor=none;fillColor=none;" parent="1" vertex="1">
          <mxGeometry x="205" y="298" width="30" height="30" as="geometry" />
        </mxCell>
        <mxCell id="quFrxLFvBAuA_-IhYsik-114" value="M" style="text;html=1;align=center;verticalAlign=middle;resizable=0;points=[];autosize=1;strokeColor=none;fillColor=none;" parent="1" vertex="1">
          <mxGeometry x="635" y="138" width="30" height="30" as="geometry" />
        </mxCell>
        <mxCell id="quFrxLFvBAuA_-IhYsik-115" value="M" style="text;html=1;align=center;verticalAlign=middle;resizable=0;points=[];autosize=1;strokeColor=none;fillColor=none;" parent="1" vertex="1">
          <mxGeometry x="135" y="378" width="30" height="30" as="geometry" />
        </mxCell>
        <mxCell id="quFrxLFvBAuA_-IhYsik-116" value="N" style="text;html=1;align=center;verticalAlign=middle;resizable=0;points=[];autosize=1;strokeColor=none;fillColor=none;" parent="1" vertex="1">
          <mxGeometry x="165" y="628" width="30" height="30" as="geometry" />
        </mxCell>
        <mxCell id="quFrxLFvBAuA_-IhYsik-117" value="1" style="text;html=1;align=center;verticalAlign=middle;resizable=0;points=[];autosize=1;strokeColor=none;fillColor=none;" parent="1" vertex="1">
          <mxGeometry x="725" y="458" width="30" height="30" as="geometry" />
        </mxCell>
        <mxCell id="quFrxLFvBAuA_-IhYsik-118" value="M" style="text;html=1;align=center;verticalAlign=middle;resizable=0;points=[];autosize=1;strokeColor=none;fillColor=none;" parent="1" vertex="1">
          <mxGeometry x="715" y="678" width="30" height="30" as="geometry" />
        </mxCell>
        <mxCell id="quFrxLFvBAuA_-IhYsik-119" value="&lt;span style=&quot;background-color: rgb(153, 255, 255);&quot;&gt;ASSUMPTION: Tour can be booked by many customers&lt;/span&gt;" style="text;html=1;align=center;verticalAlign=middle;resizable=0;points=[];autosize=1;strokeColor=none;fillColor=none;" parent="1" vertex="1">
          <mxGeometry x="30" y="910" width="320" height="30" as="geometry" />
        </mxCell>
      </root>
    </mxGraphModel>
  </diagram>
</mxfile>
